name GIL01_slow3Moments.mot
datacolumns 7
datarows 54
range 0.97500002 1.41666675
endheader

                time	          RHipMoment	          LHipMoment	         RKneeMoment	         LKneeMoment	        RAnkleMoment	        LAnkleMoment	
          0.97500002	        310.24008179	       -145.51867676	        -30.11577988	        -21.24619675	        -57.51459885	        446.92745972	
          0.98333341	        322.70758057	       -130.16944885	        -22.79628944	         -3.29733133	        -45.75299454	        384.15005493	
          0.99166673	        314.88784790	       -110.56018829	        -11.75613594	          3.30750799	        -35.60787582	        322.67626953	
          1.00000000	        306.30520630	        -90.11804962	         -7.38219976	          8.88353062	        -26.03901482	        262.44686890	
          1.00833344	        295.20632935	        -62.28666687	         -6.87265635	         11.42399120	        -16.23187637	        205.07455444	
          1.01666665	        285.01135254	        -40.79983139	         -5.81218195	         14.54220390	         -7.95161629	        150.57646179	
          1.02500010	        277.63616943	        -30.78335381	         -1.96647191	         16.30704117	         -1.35642374	        101.98608398	
          1.03333330	        271.73641968	        -37.14254379	          3.47023273	         19.01306152	          6.39223671	         61.47781754	
          1.04166675	        272.47192383	        -49.87081528	          6.61419439	         23.69846535	         14.13173962	         31.10479164	
          1.05000007	        280.88690186	        -57.45439148	          6.71462154	         25.94025421	         18.97221565	         10.58007717	
          1.05833340	        290.78060913	        -82.31986237	          4.55588293	         35.02667618	         20.45215416	         -1.89780235	
          1.06666672	        281.48510742	        -99.02443695	          6.76378870	         40.32141113	         18.13522339	         -9.48477936	
          1.07500005	        256.18927002	        -76.15901947	         12.92369747	         26.13510132	         12.17346096	        -12.13305187	
          1.08333337	        237.81419373	        -46.65246964	         18.07418823	          6.76758575	          3.24545717	        -12.23081207	
          1.09166670	        231.61613464	        -37.28919983	         21.52309036	         -3.88195658	         -7.62877226	        -13.02520180	
          1.10000002	        226.40263367	        -39.08223343	         24.14397812	         -7.96991396	        -16.81682205	        -14.72096729	
          1.10833335	        217.74050903	        -37.13980484	         28.95125771	        -14.07409191	        -22.98058510	        -15.44373226	
          1.11666679	        219.13311768	         30.73719978	         31.87150383	        -67.78366089	        -25.40550613	         -6.20359898	
          1.12500000	        220.65855408	          4.17026949	         35.42213058	        -58.04272842	        -26.29384041	         -6.24883318	
          1.13333344	        200.26097107	        -21.32576180	         42.39327621	        -45.90450668	        -23.53256798	         -6.24913645	
          1.14166665	        166.79600525	        -26.26584053	         50.10190582	        -39.08249283	        -17.59521294	         -6.05574560	
          1.15000010	        148.92955017	        -28.74402237	         51.49654007	        -35.10966873	         -7.81939316	         -6.04505920	
          1.15833330	        148.33906555	        -46.17344666	         46.00466156	        -28.46436501	          4.13752174	         -6.27909088	
          1.16666675	        145.06983948	        -52.02517700	         38.05744934	        -25.23543167	         19.37688828	         -6.34720325	
          1.17500007	        134.76974487	        -76.13011169	         30.96875381	        -12.88722706	         36.81094742	         -6.07518435	
          1.18333340	        126.15525818	        -45.20775604	         24.68862343	        -25.33127785	         53.84060669	         -5.58126307	
          1.19166672	        121.92652893	        -41.46102905	         15.10351658	        -27.75636292	         73.30140686	         -5.18838835	
          1.20000005	        111.48619843	        -32.73443985	          5.77657747	        -31.31960297	         94.45194244	         -4.82192373	
          1.20833337	         98.08361053	        -37.06106567	         -2.92288160	        -26.60506630	        116.35221863	         -4.40282965	
          1.21666670	         97.09693146	        -25.62682915	        -16.26739693	        -30.81437492	        138.79229736	         -4.33636379	
          1.22500002	         99.27414703	        -41.67583847	        -30.34335327	        -29.53930092	        160.13932800	         -4.93893814	
          1.23333335	         93.27850342	        -43.42600632	        -40.03445816	        -36.33090210	        179.65017700	         -5.87921429	
          1.24166667	         93.49308777	        -75.84738159	        -51.12658310	        -24.27355576	        198.58677673	         -6.61104345	
          1.25000000	         94.42642212	        -64.25458527	        -60.76134491	        -28.71318626	        215.42408752	         -7.21444178	
          1.25833333	         87.95675659	        -45.19546890	        -67.77507019	        -37.42015839	        231.41748047	         -7.80510759	
          1.26666677	         86.89772034	        -34.76820374	        -77.50220490	        -43.34358978	        247.43493652	         -8.26227665	
          1.27500010	         86.84630585	        -30.97459030	        -87.00418854	        -45.74105835	        262.35308838	         -8.53203297	
          1.28333342	         76.12730408	        -30.90446854	        -92.84871674	        -44.97288895	        277.35821533	         -8.69182587	
          1.29166675	         65.76374054	        -38.35490417	        -99.01645660	        -42.34972000	        290.75701904	         -8.97291660	
          1.30000007	         59.33233261	        -54.19878387	       -104.87019348	        -39.47880554	        301.53851318	         -9.62390041	
          1.30833340	         56.63875580	        -63.87875366	       -110.74244690	        -37.02606583	        309.92517090	        -10.59862423	
          1.31666672	         58.23645401	        -69.73587799	       -116.10513306	        -32.03685379	        313.57455444	        -11.69826221	
          1.32500005	         25.53034973	        -77.93343353	        -99.94422913	        -27.19928932	        317.26501465	        -12.72964191	
          1.33333337	         27.21589279	        -84.25091553	       -100.71250153	        -24.46371078	        330.86987305	        -13.57794285	
          1.34166670	         52.68890762	        -89.93074036	       -118.12490845	        -23.28192711	        350.40707397	        -14.24777317	
          1.35000002	         39.86246490	       -102.67388153	       -121.87749481	        -19.81657219	        369.98294067	        -14.75036621	
          1.35833335	          9.70762157	       -110.49954987	       -122.34516144	        -17.84754181	        390.84356689	        -15.16036797	
          1.36666667	        -15.67105198	       -109.94553375	       -127.62803650	        -19.16483879	        414.60778809	        -15.65109539	
          1.37500000	        -41.39384079	       -102.40847015	       -132.58154297	        -22.43527794	        439.98565674	        -16.26278305	
          1.38333333	        -63.66242599	        -91.14553833	       -137.65238953	        -23.86086273	        468.17340088	        -16.86025810	
          1.39166677	        -82.43666840	        -77.99317932	       -143.49794006	        -25.59406853	        498.47427368	        -17.34219360	
          1.40000010	        -87.21191406	        -68.39965057	       -154.65515137	        -25.45783997	        530.81604004	        -17.64410782	
          1.40833342	        -84.22665405	        -62.89244080	       -169.09751892	        -23.00476074	        563.82385254	        -17.71132278	
          1.41666675	        -78.79872894	        -61.50095749	       -185.89096069	        -19.73649979	        597.76409912	        -17.58179474	
